<?xml version="1.0" encoding="UTF-8" standalone="no"?>
<!-- Created with Inkscape (http://www.inkscape.org/) -->
<svg id="svg2" xmlns:rdf="http://www.w3.org/1999/02/22-rdf-syntax-ns#" xmlns="http://www.w3.org/2000/svg" height="5.3924mm" width="10.306mm" version="1.1" xmlns:cc="http://creativecommons.org/ns#" xmlns:dc="http://purl.org/dc/elements/1.1/" viewBox="0 0 36.517876 19.107098">
 <metadata id="metadata7">
  <rdf:RDF>
   <cc:Work rdf:about="">
    <dc:format>image/svg+xml</dc:format>
    <dc:type rdf:resource="http://purl.org/dc/dcmitype/StillImage"/>
    <dc:title/>
   </cc:Work>
  </rdf:RDF>
 </metadata>
 <g id="layer1" transform="translate(-357.77 -391.79)">
  <g id="g4967">
   <g stroke-width="0">
    <ellipse id="path4136" rx="5.7143" ry="5.5357" cy="378.67" cx="369.29" fill="#8fe779"/>
    <ellipse id="ellipse4147" fill-opacity=".67361" rx="5.7143" ry="5.5357" cy="374.92" cx="375.72" fill="#7ca173"/>
    <ellipse id="ellipse4149" rx="5.7143" ry="5.5357" cy="371.88" cx="394.11" fill="#a96e70"/>
    <ellipse id="ellipse4151" fill-opacity=".67361" rx="5.7143" ry="5.5357" cy="377.06" cx="387.68" fill="#935100"/>
    <ellipse id="ellipse4153" fill-opacity=".67361" rx="5.7143" ry="5.5357" cy="375.1" cx="380.9" fill="#26930d"/>
   </g>
   <g stroke="#343434" fill="none">
    <path id="path4155" d="m393.11 369.16v0.65084c0 0.0198-0.0147-0.0731 0-0.0591 0.0328 0.0312 0.0621 0.0742 0.0621 0.11834 0 0.0279-0.0829-0.0395-0.0621-0.0591 0.0293-0.0279 0.10582-0.0352 0.12435 0 0.0208 0.0395-0.0294 0.0872-0.0621 0.11834-0.0147 0.014-0.0185-0.0503 0-0.0591 0.037-0.0176 0.0829 0 0.12435 0h-0.0621 0.18653-0.0621c0.037 0 0.34971 0.0111 0.37304 0 0.0743-0.0353-0.11975-0.11833 0.0621-0.11833 0.0208 0 0 0.0394 0 0.0591 0.0415-0.0394 0.0829-0.0789 0.12435-0.11832 0.0208-0.0198-0.0829 0.0789-0.0621 0.0591 0.0415-0.0394 0.0829-0.0789 0.12435-0.11833 0.0207-0.0197-0.0415 0.0789-0.0621 0.0591-0.0294-0.0279 0-0.0789 0-0.11833v-0.11834c0-0.0198-0.0207-0.0591 0-0.0591 0.0208 0 0 0.0789 0 0.0591v-0.11833c0-0.0197 0.0115-0.0427 0-0.0591-0.0325-0.0464-0.0687-0.10069-0.12435-0.11833-0.0364-0.0115-0.0615 0.11903-0.12435 0.0591-0.0328-0.0312-0.0294-0.0872-0.0621-0.11833-0.0147-0.014 0.0207 0.0591 0 0.0591-0.0464 0-0.0804-0.0452-0.12434-0.0591-0.0197-0.007-0.0415 0-0.0621 0-0.0415 0-0.0837-0.007-0.12435 0-0.0929 0.0177-0.38467 0.12939-0.43523 0.17749-0.0293 0.0279 0 0.0789 0 0.11834v-0.0591 0.1775c0 0.0198-0.0207-0.0591 0-0.0591 0.0208 0-0.0185 0.0503 0 0.0591 0.037 0.0176 0.095-0.0279 0.12435 0 0.0293 0.0279-0.0393 0.10586 0 0.11834 0.0621 0.0198 0.12099-0.0591 0.18653-0.0591 0.0293 0-0.0621 0.0313-0.0621 0.0591 0 0.0198 0.0425-0.007 0.0621 0 0.0439 0.014 0.0916 0.028 0.12435 0.0591 0.0147 0.014-0.0208 0.0591 0 0.0591 0.0293 0 0.0329-0.0591 0.0621-0.0591 0.0293 0 0.0344 0.0503 0.0621 0.0591 0.0393 0.0125 0.0829 0 0.12434 0h-0.0621 0.24869-0.0621c0.0415 0 0.095 0.0279 0.12435 0 0.0208-0.0197-0.0752-0.0342-0.0621-0.0591 0.0207-0.0395 0.10362-0.0198 0.12435-0.0591 0.0131-0.0249-0.049-0.0342-0.0621-0.0591-0.009-0.0176 0-0.0395 0-0.0591v-0.11834c0-0.0197 0.0185 0.0503 0 0.0591-0.037 0.0176-0.095 0.0279-0.12435 0-0.0207-0.0198 0.0829-0.0395 0.0621-0.0591-0.003-0.003-0.27619 0-0.31086 0-0.0151 0-0.18453-0.002-0.18653 0-0.0147 0.014 0 0.0395 0 0.0591v0.11833-0.0591c0 0.39246-0.0293-0.0279 0.0621 0.0591 0.0293 0.0279-0.0293 0.0904 0 0.11834 0.0207 0.0197 0.0329-0.0591 0.0621-0.0591 0.0293 0 0.0359 0.0467 0.0621 0.0591 0.0185 0.008 0.0475-0.014 0.0621 0 0.0147 0.014-0.0208 0.0591 0 0.0591 0.0293 0 0.0329-0.0591 0.0621-0.0591 0.0208 0-0.0185 0.0503 0 0.0591 0.037 0.0176 0.0829 0 0.12434 0h-0.0621 0.12435c0.0207 0-0.0768 0.014-0.0621 0 0.0328-0.0312 0.0916-0.028 0.12435-0.0591 0.0147-0.014-0.0475 0.014-0.0621 0-0.0147-0.014-0.009-0.0415 0-0.0591 0.0131-0.0249 0.0329-0.0591 0.0621-0.0591 0.0294 0 0.0621 0.0871 0.0621 0.0591 0-0.0441-0.0294-0.0872-0.0621-0.11833-0.0147-0.014 0 0.0789 0 0.0591v-0.11833c0-0.0198 0.0208 0.0591 0 0.0591-0.0207 0 0-0.0394 0-0.0591v-0.0591c0-0.0197-0.0207-0.0591 0-0.0591 0.0208 0 0 0.0789 0 0.0591v-0.11833c0-0.0197 0.0208 0.0591 0 0.0591-0.0415 0 0.0415-0.11833 0-0.11833-0.0464 0-0.0916 0.028-0.12435 0.0591-0.0147 0.014 0.0768 0.014 0.0621 0-0.0328-0.0312-0.0916-0.028-0.12435-0.0591-0.0147-0.014 0.0829 0 0.0621 0h-0.12434 0.0621c-0.0415 0-0.095-0.0279-0.12435 0-0.0208 0.0197 0.0529 0.0327 0.0621 0.0591 0.0131 0.0374 0 0.0789 0 0.11834 0 0.0198 0.0147-0.0731 0-0.0591-0.0328 0.0312-0.0294 0.0872-0.0621 0.11834-0.0147 0.014 0-0.0789 0-0.0591v0.11834-0.0591" stroke-width=".96067px"/>
    <path id="path4157" d="m396.61 369.2c0.18919 0.25278 0.10347 0.23698 0.22171 0.23698 0.0147 0 0.0339-0.0186 0.0443 0 0.0234 0.0417 0.021 0.11636 0.0443 0.15799 0.0105 0.0186-0.0105-0.0604 0-0.079s0.0296 0 0.0443 0h0.0443 0.0887-0.0443 0.0887-0.0443 0.13303c0.0147 0 0.0338 0.0186 0.0443 0 0.0234-0.0417 0.021-0.11636 0.0443-0.15799 0.0105-0.0186 0.0339 0.0186 0.0443 0 0.0105-0.0186-0.0147-0.079 0-0.079 0.0133 0-0.0292 0.26199 0.0443 0 0.006-0.0235-0.0147-0.079 0-0.079 0.0148 0 0 0.10535 0 0.079v-0.23697-0.079c0-0.0263 0.0105-0.0603 0-0.0789-0.0234-0.0417-0.0612-0.0463-0.0887-0.079-0.0174-0.0206-0.0256-0.0623-0.0443-0.0789-0.0132-0.0113-0.0311 0.0113-0.0443 0-0.0187-0.0166-0.0256-0.0623-0.0443-0.079-0.0164-0.0145-0.22742 0-0.26605 0-0.0308 0-0.20567-0.0143-0.2217 0-0.098 0.0873-0.0138 0.0491-0.0443 0.15798-0.009 0.0333-0.0296 0.0527-0.0443 0.079 0 0.10535 0.007 0.21146 0 0.31596-0.008 0.10773-0.0591 0.21065-0.0443 0.31597 0.007 0.0511 0.0606-0.0166 0.0887 0 0.0198 0.0113 0.0256 0.0623 0.0443 0.079 0.0132 0.0113 0.0296 0 0.0443 0h0.26604c0.0148 0 0.0339 0.0186 0.0443 0 0.004-0.008 0.004-0.22908 0-0.23699-0.0105-0.0186-0.0311 0.0113-0.0443 0-0.0247-0.0219-0.0744-0.15798-0.0887-0.15798-0.0147 0 0.0105 0.0976 0 0.079-0.0234-0.0417-0.021-0.11636-0.0443-0.15799-0.0234-0.0417-0.0653-0.0374-0.0887-0.0789-0.0105-0.0186 0.0296 0 0.0443 0-0.0739 0.0527-0.14251 0.17208-0.22171 0.15797-0.0858-0.0153-0.14462-0.16831-0.2217-0.23697-0.0187-0.0166 0.035 0.0457 0.0443 0.079 0.007 0.024 0 0.2014 0 0.23697 0 0.0263-0.0143 0.0853 0 0.0789 0.0641-0.0285 0.116-0.20171 0.17737-0.15798 0.0566 0.0403 0.0217 0.21518 0.0443 0.31597 0.025 0.11135 0.0831 0.0789 0.13303 0.0789h0.0443c0.0147 0 0.0443-0.0264 0.0443 0 0 0.0263-0.0591 0-0.0443 0h0.0887 0.0443c0.0147 0 0.0339 0.0186 0.0443 0 0.0234-0.0417 0.0443-0.0991 0.0443-0.15799 0-0.0263-0.0576 0.0113-0.0443 0 0.0443-0.0263 0.0887-0.0527 0.13303-0.079-0.0148-0.0263-0.0591-0.0527-0.0443-0.0789 0.0209-0.0373 0.0678 0.0373 0.0887 0 0.0148-0.0264-0.0537-0.0457-0.0443-0.0789 0.0147-0.0527 0.0739-0.0263 0.0887-0.079 0.009-0.0333-0.0443-0.0418-0.0443-0.079 0-0.0264 0.0339 0.0186 0.0443 0 0.004-0.008 0.004-0.22908 0-0.23698-0.0105-0.0187-0.0296 0-0.0443 0h-0.31038c-0.0147 0-0.0339-0.0187-0.0443 0-0.0105 0.0186 0 0.0527 0 0.0789" stroke-width=".93740px"/>
    <path id="path4159" stroke-linejoin="round" d="m391.55 371.79 2.9479 0.31567h0.51087c0.13621 0 0.27545 0.0104 0.40864 0 0.1117-0.01 0.19614-0.0488 0.30651-0.0604 0.14899-0.016 0.30805-0.01 0.45977-0.0202 0.0374-0.002 0.0657-0.016 0.10214-0.0202 0.23667-0.0292 0.48499-0.0443 0.71517-0.0805 1.1292-0.17826-0.0871-0.0125 0.40868-0.12103 1.1433-0.25066-0.6382 0.21372 0.76628-0.22176 0.0897-0.0279 0.21144-0.0354 0.30649-0.0604 0.11058-0.0292 0.20011-0.0694 0.3065-0.10079 0.0981-0.0292 0.21148-0.0499 0.3065-0.0808 0.58465-0.18878-0.007-0.0177 0.40869-0.18145 0.0603-0.0237 0.13784-0.0393 0.20432-0.0604 0.10393-0.0328 0.20011-0.0695 0.30651-0.10079 0.0303-0.01 0.0826-0.007 0.10214-0.0202 0.0362-0.0237 0.0105-0.058 0.0511-0.0805 0.0494-0.0274 0.14414-0.0367 0.20434-0.0604 0.0123-0.006-0.0123-0.016 0-0.0202 0.0269-0.0104 0.0752-0.01 0.10213-0.0202 0.0123-0.006 0-0.0143 0-0.0202v-0.0202" stroke-linecap="round" stroke-width=".50830px"/>
   </g>
  </g>
  <g id="g4977">
   <g stroke-width="0">
    <ellipse id="ellipse4189" rx="5.7143" ry="6.7411" cy="402.55" cx="363.48" fill="#adc929"/>
    <ellipse id="ellipse4191" fill-opacity=".84028" rx="5.7143" ry="6.25" cy="400.54" cx="369.2" fill="#1c9300"/>
    <ellipse id="ellipse4195" fill-opacity=".67361" rx="5.7143" ry="6.7411" cy="404.16" cx="382.23" fill="#00934c"/>
    <ellipse id="ellipse4193" rx="5.6696" ry="6.9643" cy="398.76" cx="388.62" fill="#7fa96e"/>
    <ellipse id="ellipse4197" fill-opacity=".67361" rx="6.3839" ry="6.6071" cy="402.33" cx="376.12" fill="#7c930d"/>
   </g>
   <g stroke="#343434">
    <path id="path4199" d="m387.3 395.77v0.65084c0 0.0198-0.0147-0.0731 0-0.0591 0.0328 0.0312 0.0621 0.0742 0.0621 0.11834 0 0.0279-0.0829-0.0395-0.0621-0.0591 0.0293-0.0279 0.10582-0.0352 0.12435 0 0.0208 0.0395-0.0294 0.0872-0.0621 0.11834-0.0147 0.014-0.0185-0.0503 0-0.0591 0.037-0.0176 0.0829 0 0.12435 0h-0.0621 0.18653-0.0621c0.037 0 0.34971 0.0111 0.37304 0 0.0743-0.0353-0.11975-0.11833 0.0621-0.11833 0.0208 0 0 0.0394 0 0.0591 0.0415-0.0394 0.0829-0.0789 0.12435-0.11832 0.0208-0.0198-0.0829 0.0789-0.0621 0.0591 0.0415-0.0394 0.0829-0.0789 0.12435-0.11833 0.0207-0.0197-0.0415 0.0789-0.0621 0.0591-0.0294-0.0279 0-0.0789 0-0.11833v-0.11834c0-0.0198-0.0207-0.0591 0-0.0591 0.0208 0 0 0.0789 0 0.0591v-0.11833c0-0.0197 0.0115-0.0427 0-0.0591-0.0325-0.0464-0.0687-0.10069-0.12435-0.11833-0.0364-0.0115-0.0615 0.11903-0.12435 0.0591-0.0328-0.0312-0.0294-0.0872-0.0621-0.11833-0.0147-0.014 0.0207 0.0591 0 0.0591-0.0464 0-0.0804-0.0452-0.12434-0.0591-0.0197-0.007-0.0415 0-0.0621 0-0.0415 0-0.0837-0.007-0.12435 0-0.0929 0.0177-0.38467 0.12939-0.43523 0.17749-0.0293 0.0279 0 0.0789 0 0.11834v-0.0591 0.1775c0 0.0198-0.0207-0.0591 0-0.0591 0.0208 0-0.0185 0.0503 0 0.0591 0.037 0.0176 0.095-0.0279 0.12435 0 0.0293 0.0279-0.0393 0.10586 0 0.11834 0.0621 0.0198 0.12099-0.0591 0.18653-0.0591 0.0293 0-0.0621 0.0313-0.0621 0.0591 0 0.0198 0.0425-0.007 0.0621 0 0.0439 0.014 0.0916 0.028 0.12435 0.0591 0.0147 0.014-0.0208 0.0591 0 0.0591 0.0293 0 0.0329-0.0591 0.0621-0.0591 0.0293 0 0.0344 0.0503 0.0621 0.0591 0.0393 0.0125 0.0829 0 0.12434 0h-0.0621 0.24869-0.0621c0.0415 0 0.095 0.0279 0.12435 0 0.0208-0.0197-0.0752-0.0342-0.0621-0.0591 0.0207-0.0395 0.10362-0.0198 0.12435-0.0591 0.0131-0.0249-0.049-0.0342-0.0621-0.0591-0.009-0.0176 0-0.0395 0-0.0591v-0.11834c0-0.0197 0.0185 0.0503 0 0.0591-0.037 0.0176-0.095 0.0279-0.12435 0-0.0207-0.0198 0.0829-0.0395 0.0621-0.0591-0.003-0.003-0.27619 0-0.31086 0-0.0151 0-0.18453-0.002-0.18653 0-0.0147 0.014 0 0.0395 0 0.0591v0.11833-0.0591c0 0.39246-0.0293-0.0279 0.0621 0.0591 0.0293 0.0279-0.0293 0.0904 0 0.11834 0.0207 0.0197 0.0329-0.0591 0.0621-0.0591 0.0293 0 0.0359 0.0467 0.0621 0.0591 0.0185 0.008 0.0475-0.014 0.0621 0 0.0147 0.014-0.0208 0.0591 0 0.0591 0.0293 0 0.0329-0.0591 0.0621-0.0591 0.0208 0-0.0185 0.0503 0 0.0591 0.037 0.0176 0.0829 0 0.12434 0h-0.0621 0.12435c0.0207 0-0.0768 0.014-0.0621 0 0.0328-0.0312 0.0916-0.028 0.12435-0.0591 0.0147-0.014-0.0475 0.014-0.0621 0-0.0147-0.014-0.009-0.0415 0-0.0591 0.0131-0.0249 0.0329-0.0591 0.0621-0.0591 0.0294 0 0.0621 0.0871 0.0621 0.0591 0-0.0441-0.0294-0.0872-0.0621-0.11833-0.0147-0.014 0 0.0789 0 0.0591v-0.11833c0-0.0198 0.0208 0.0591 0 0.0591-0.0207 0 0-0.0394 0-0.0591v-0.0591c0-0.0197-0.0207-0.0591 0-0.0591 0.0208 0 0 0.0789 0 0.0591v-0.11833c0-0.0197 0.0208 0.0591 0 0.0591-0.0415 0 0.0415-0.11833 0-0.11833-0.0464 0-0.0916 0.028-0.12435 0.0591-0.0147 0.014 0.0768 0.014 0.0621 0-0.0328-0.0312-0.0916-0.028-0.12435-0.0591-0.0147-0.014 0.0829 0 0.0621 0h-0.12434 0.0621c-0.0415 0-0.095-0.0279-0.12435 0-0.0208 0.0197 0.0529 0.0327 0.0621 0.0591 0.0131 0.0374 0 0.0789 0 0.11834 0 0.0198 0.0147-0.0731 0-0.0591-0.0328 0.0312-0.0294 0.0872-0.0621 0.11834-0.0147 0.014 0-0.0789 0-0.0591v0.11834-0.0591" stroke-width=".96067px" fill="none"/>
    <path id="path4201" d="m390.54 395.45c0.18919 0.25278 0.10347 0.23698 0.22171 0.23698 0.0147 0 0.0339-0.0186 0.0443 0 0.0234 0.0417 0.021 0.11636 0.0443 0.15799 0.0105 0.0186-0.0105-0.0604 0-0.079s0.0296 0 0.0443 0h0.0443 0.0887-0.0443 0.0887-0.0443 0.13303c0.0147 0 0.0338 0.0186 0.0443 0 0.0234-0.0417 0.021-0.11636 0.0443-0.15799 0.0105-0.0186 0.0339 0.0186 0.0443 0 0.0105-0.0186-0.0147-0.079 0-0.079 0.0133 0-0.0292 0.26199 0.0443 0 0.006-0.0235-0.0147-0.079 0-0.079 0.0148 0 0 0.10535 0 0.079v-0.23697-0.079c0-0.0263 0.0105-0.0603 0-0.0789-0.0234-0.0417-0.0612-0.0463-0.0887-0.079-0.0174-0.0206-0.0256-0.0623-0.0443-0.0789-0.0132-0.0113-0.0311 0.0113-0.0443 0-0.0187-0.0166-0.0256-0.0623-0.0443-0.079-0.0164-0.0145-0.22742 0-0.26605 0-0.0308 0-0.20567-0.0143-0.2217 0-0.098 0.0873-0.0138 0.0491-0.0443 0.15798-0.009 0.0333-0.0296 0.0527-0.0443 0.079 0 0.10535 0.007 0.21146 0 0.31596-0.008 0.10773-0.0591 0.21065-0.0443 0.31597 0.007 0.0511 0.0606-0.0166 0.0887 0 0.0198 0.0113 0.0256 0.0623 0.0443 0.079 0.0132 0.0113 0.0296 0 0.0443 0h0.26604c0.0148 0 0.0339 0.0186 0.0443 0 0.004-0.008 0.004-0.22908 0-0.23699-0.0105-0.0186-0.0311 0.0113-0.0443 0-0.0247-0.0219-0.0744-0.15798-0.0887-0.15798-0.0147 0 0.0105 0.0976 0 0.079-0.0234-0.0417-0.021-0.11636-0.0443-0.15799-0.0234-0.0417-0.0653-0.0374-0.0887-0.0789-0.0105-0.0186 0.0296 0 0.0443 0-0.0739 0.0527-0.14251 0.17208-0.22171 0.15797-0.0858-0.0153-0.14462-0.16831-0.2217-0.23697-0.0187-0.0166 0.035 0.0457 0.0443 0.079 0.007 0.024 0 0.2014 0 0.23697 0 0.0263-0.0143 0.0853 0 0.0789 0.0641-0.0285 0.116-0.20171 0.17737-0.15798 0.0566 0.0403 0.0217 0.21518 0.0443 0.31597 0.025 0.11135 0.0831 0.0789 0.13303 0.0789h0.0443c0.0147 0 0.0443-0.0264 0.0443 0 0 0.0263-0.0591 0-0.0443 0h0.0887 0.0443c0.0147 0 0.0339 0.0186 0.0443 0 0.0234-0.0417 0.0443-0.0991 0.0443-0.15799 0-0.0263-0.0576 0.0113-0.0443 0 0.0443-0.0263 0.0887-0.0527 0.13303-0.079-0.0148-0.0263-0.0591-0.0527-0.0443-0.0789 0.0209-0.0373 0.0678 0.0373 0.0887 0 0.0148-0.0264-0.0537-0.0457-0.0443-0.0789 0.0147-0.0527 0.0739-0.0263 0.0887-0.079 0.009-0.0333-0.0443-0.0418-0.0443-0.079 0-0.0264 0.0339 0.0186 0.0443 0 0.004-0.008 0.004-0.22908 0-0.23698-0.0105-0.0187-0.0296 0-0.0443 0h-0.31038c-0.0147 0-0.0339-0.0187-0.0443 0-0.0105 0.0186 0 0.0527 0 0.0789" stroke-width=".93740px" fill="none"/>
    <path id="path4205" stroke-linejoin="round" d="m386.79 399.47c2.0321-1.3594 5.8036-1.5178 5.8036-1.5178 1.1815 0.71054-0.89593 3.1424-2.2321 3.4821-1.3168 0.33476-4.7007-1.2089-3.5714-1.9643z" fill-rule="evenodd" stroke-linecap="round" stroke-width="1px" fill="#343434"/>
   </g>
   <g fill-rule="evenodd" stroke="#fff" stroke-width=".1" fill="#fff">
    <path id="path4207" d="m387.27 398.61c1.1384-0.44643 1.1384-0.43527 1.1384-0.43527l-0.18973 1.1272z"/>
    <path id="path4209" d="m388.16 398.29l1.1384-0.30135-0.18973 1.0603z"/>
    <path id="path4211" d="m389.17 397.98l1.1384-0.18973-0.18973 1.1272z"/>
    <path id="path4213" d="m390.16 397.8l1.1942-0.17857-0.23437 1.0045z"/>
    <path id="path4215" d="m391.22 397.68l1.2277-0.14509-0.51339 1.0379z"/>
   </g>
  </g>
  <path id="path4226" d="m357.14 434.86h-2.3214c-0.43372 1.7329 0.6195 3.5214 2.2095 4.2305 1.2121 0.74548 2.1501 2.2744 3.7564 2.003 3.3163 0.18885 6.7543 0.57805 9.9509-0.58085 1.8742-0.65789 3.8067-1.1112 5.7774-1.3571 1.2441-0.19631 2.4049-0.6767 3.6523-0.83861 2.353-0.62737 4.287-2.1845 6.4735-3.1829 1.2866-0.68779 2.1159-1.9905 2.3482-3.4126 0.48754-1.7464 1.1552-3.7351 0.26624-5.466-1.4835-0.85233-2.5466 0.85712-3.2356 1.9269-1.0074 1.0486-1.8853 2.2253-2.7904 3.3679-0.62636 1.3194-2.1526 1.331-3.1987 2.1004-1.5207 0.82208-3.0482 1.637-4.5546 2.4805-1.8337 0.7263-3.8303 0.15421-5.7331 0.34789-2.0019-0.11023-4.08 0.26617-6.0107-0.43751-1.6638 0.13816-3.2156-0.94646-4.8791-0.57706-0.59385 0.042-1.7997-0.52419-1.2557-0.49993-0.14763-0.0482-0.30466-0.0677-0.45531-0.10458z" fill-rule="evenodd" stroke-width="0" fill="#eeffae"/>
  <g id="g4992">
   <path id="path4280" d="m365 438.97c-1.3623 0.65692-2.5034 1.7845-3.1072 3.1782-0.41934 0.8893-0.71499 1.9367-0.37941 2.9016 0.19349 0.35125 0.52512-0.0916 0.6376-0.29562 0.20977-0.32179 0.3899-0.67636 0.67723-0.93372 0.50828-0.84986 1.1694-1.5948 1.7581-2.3863 0.45301-0.43136 0.8816-1.0283 0.76605-1.6886-0.0472-0.28393-0.18293-0.54588-0.35244-0.77562z" fill-opacity=".75294" fill-rule="evenodd" stroke-width="0" fill="#4f7540"/>
   <path id="path4276" d="m380.36 435.22c2.0119 0.82568 3.9985 3.0612 3.3981 5.3581-2.0955 3.1765-5.4934-1.8496-3.959-4.2098 0.17538-0.38866 0.34242-0.78126 0.56091-1.1483z" fill-opacity=".76389" fill-rule="evenodd" stroke-width="0" fill="#4f7540"/>
   <g stroke-width="0">
    <path id="path4219" d="m363.57 439.51s3.9455-0.31464 9.2167-0.38854c2.0923-0.29698 3.9979-1.2776 5.9667-1.9876 1.9296-0.82095 3.778-1.8561 5.4814-3.0762 1.0201-0.98125 1.6876-2.2788 2.4278-3.4731 0.21611-0.90563 1.4452-1.9001 0.62508-2.7851-1.1786-0.82151-2.6521-1.2769-4.0979-1.15-1.3473-0.0468-2.3822 1.0822-3.7169 1.1969-2.5591 0.63987-5.2216 0.33935-7.8312 0.41716-3.003 0.0136-6.0103-0.0504-9.0098 0.0369-1.2396 0.0442-2.1521 0.73291-2.8181 1.7111-0.32265 0.79167-1.346 1.0831-1.323 2.0141-0.53375 0.83519-1.1828 1.3305-1.3922 2.2331-0.16241 1.1301-0.3646 2.3287 0.35021 3.32 0.3145 0.80187 1.3817 1.0282 1.4784 1.9314" fill-rule="evenodd" fill="#3c8342"/>
    <ellipse id="ellipse4250" rx="5.6696" ry="6.9643" cy="423.26" cx="391.38" fill="#7fa96e"/>
    <path id="path4268" d="m385.18 420.93l10.893-3.2143 0.71429 2.8571-12.321 2.3214z" fill-rule="evenodd" fill="#ff7e86"/>
   </g>
   <g stroke="#343434">
    <path id="path4252" d="m390.07 420.26v0.65084c0 0.0198-0.0147-0.0731 0-0.0591 0.0328 0.0312 0.0621 0.0742 0.0621 0.11834 0 0.0279-0.0829-0.0395-0.0621-0.0591 0.0293-0.0279 0.10582-0.0352 0.12435 0 0.0208 0.0395-0.0294 0.0872-0.0621 0.11834-0.0147 0.014-0.0185-0.0503 0-0.0591 0.037-0.0176 0.0829 0 0.12435 0h-0.0621 0.18653-0.0621c0.037 0 0.34971 0.0111 0.37304 0 0.0743-0.0353-0.11975-0.11833 0.0621-0.11833 0.0208 0 0 0.0394 0 0.0591 0.0415-0.0394 0.0829-0.0789 0.12435-0.11832 0.0208-0.0198-0.0829 0.0789-0.0621 0.0591 0.0415-0.0394 0.0829-0.0789 0.12435-0.11833 0.0207-0.0197-0.0415 0.0789-0.0621 0.0591-0.0294-0.0279 0-0.0789 0-0.11833v-0.11834c0-0.0198-0.0207-0.0591 0-0.0591 0.0208 0 0 0.0789 0 0.0591v-0.11833c0-0.0197 0.0115-0.0427 0-0.0591-0.0325-0.0464-0.0687-0.10069-0.12435-0.11833-0.0364-0.0115-0.0615 0.11903-0.12435 0.0591-0.0328-0.0312-0.0294-0.0872-0.0621-0.11833-0.0147-0.014 0.0207 0.0591 0 0.0591-0.0464 0-0.0804-0.0452-0.12434-0.0591-0.0197-0.007-0.0415 0-0.0621 0-0.0415 0-0.0837-0.007-0.12435 0-0.0929 0.0177-0.38467 0.12939-0.43523 0.17749-0.0293 0.0279 0 0.0789 0 0.11834v-0.0591 0.1775c0 0.0198-0.0207-0.0591 0-0.0591 0.0208 0-0.0185 0.0503 0 0.0591 0.037 0.0176 0.095-0.0279 0.12435 0 0.0293 0.0279-0.0393 0.10586 0 0.11834 0.0621 0.0198 0.12099-0.0591 0.18653-0.0591 0.0293 0-0.0621 0.0313-0.0621 0.0591 0 0.0198 0.0425-0.007 0.0621 0 0.0439 0.014 0.0916 0.028 0.12435 0.0591 0.0147 0.014-0.0208 0.0591 0 0.0591 0.0293 0 0.0329-0.0591 0.0621-0.0591 0.0293 0 0.0344 0.0503 0.0621 0.0591 0.0393 0.0125 0.0829 0 0.12434 0h-0.0621 0.24869-0.0621c0.0415 0 0.095 0.0279 0.12435 0 0.0208-0.0197-0.0752-0.0342-0.0621-0.0591 0.0207-0.0395 0.10362-0.0198 0.12435-0.0591 0.0131-0.0249-0.049-0.0342-0.0621-0.0591-0.009-0.0176 0-0.0395 0-0.0591v-0.11834c0-0.0197 0.0185 0.0503 0 0.0591-0.037 0.0176-0.095 0.0279-0.12435 0-0.0207-0.0198 0.0829-0.0395 0.0621-0.0591-0.003-0.003-0.27619 0-0.31086 0-0.0151 0-0.18453-0.002-0.18653 0-0.0147 0.014 0 0.0395 0 0.0591v0.11833-0.0591c0 0.39246-0.0293-0.0279 0.0621 0.0591 0.0293 0.0279-0.0293 0.0904 0 0.11834 0.0207 0.0197 0.0329-0.0591 0.0621-0.0591 0.0293 0 0.0359 0.0467 0.0621 0.0591 0.0185 0.008 0.0475-0.014 0.0621 0 0.0147 0.014-0.0208 0.0591 0 0.0591 0.0293 0 0.0329-0.0591 0.0621-0.0591 0.0208 0-0.0185 0.0503 0 0.0591 0.037 0.0176 0.0829 0 0.12434 0h-0.0621 0.12435c0.0207 0-0.0768 0.014-0.0621 0 0.0328-0.0312 0.0916-0.028 0.12435-0.0591 0.0147-0.014-0.0475 0.014-0.0621 0-0.0147-0.014-0.009-0.0415 0-0.0591 0.0131-0.0249 0.0329-0.0591 0.0621-0.0591 0.0294 0 0.0621 0.0871 0.0621 0.0591 0-0.0441-0.0294-0.0872-0.0621-0.11833-0.0147-0.014 0 0.0789 0 0.0591v-0.11833c0-0.0198 0.0208 0.0591 0 0.0591-0.0207 0 0-0.0394 0-0.0591v-0.0591c0-0.0197-0.0207-0.0591 0-0.0591 0.0208 0 0 0.0789 0 0.0591v-0.11833c0-0.0197 0.0208 0.0591 0 0.0591-0.0415 0 0.0415-0.11833 0-0.11833-0.0464 0-0.0916 0.028-0.12435 0.0591-0.0147 0.014 0.0768 0.014 0.0621 0-0.0328-0.0312-0.0916-0.028-0.12435-0.0591-0.0147-0.014 0.0829 0 0.0621 0h-0.12434 0.0621c-0.0415 0-0.095-0.0279-0.12435 0-0.0208 0.0197 0.0529 0.0327 0.0621 0.0591 0.0131 0.0374 0 0.0789 0 0.11834 0 0.0198 0.0147-0.0731 0-0.0591-0.0328 0.0312-0.0294 0.0872-0.0621 0.11834-0.0147 0.014 0-0.0789 0-0.0591v0.11834-0.0591" stroke-width=".96067px" fill="none"/>
    <path id="path4254" d="m393.31 419.94c0.18919 0.25278 0.10347 0.23698 0.22171 0.23698 0.0147 0 0.0339-0.0186 0.0443 0 0.0234 0.0417 0.021 0.11636 0.0443 0.15799 0.0105 0.0186-0.0105-0.0604 0-0.079s0.0296 0 0.0443 0h0.0443 0.0887-0.0443 0.0887-0.0443 0.13303c0.0147 0 0.0338 0.0186 0.0443 0 0.0234-0.0417 0.021-0.11636 0.0443-0.15799 0.0105-0.0186 0.0339 0.0186 0.0443 0 0.0105-0.0186-0.0147-0.079 0-0.079 0.0133 0-0.0292 0.26199 0.0443 0 0.006-0.0235-0.0147-0.079 0-0.079 0.0148 0 0 0.10535 0 0.079v-0.23697-0.079c0-0.0263 0.0105-0.0603 0-0.0789-0.0234-0.0417-0.0612-0.0463-0.0887-0.079-0.0174-0.0206-0.0256-0.0623-0.0443-0.0789-0.0132-0.0113-0.0311 0.0113-0.0443 0-0.0187-0.0166-0.0256-0.0623-0.0443-0.079-0.0164-0.0145-0.22742 0-0.26605 0-0.0308 0-0.20567-0.0143-0.2217 0-0.098 0.0873-0.0138 0.0491-0.0443 0.15798-0.009 0.0333-0.0296 0.0527-0.0443 0.079 0 0.10535 0.007 0.21146 0 0.31596-0.008 0.10773-0.0591 0.21065-0.0443 0.31597 0.007 0.0511 0.0606-0.0166 0.0887 0 0.0198 0.0113 0.0256 0.0623 0.0443 0.079 0.0132 0.0113 0.0296 0 0.0443 0h0.26604c0.0148 0 0.0339 0.0186 0.0443 0 0.004-0.008 0.004-0.22908 0-0.23699-0.0105-0.0186-0.0311 0.0113-0.0443 0-0.0247-0.0219-0.0744-0.15798-0.0887-0.15798-0.0147 0 0.0105 0.0976 0 0.079-0.0234-0.0417-0.021-0.11636-0.0443-0.15799-0.0234-0.0417-0.0653-0.0374-0.0887-0.0789-0.0105-0.0186 0.0296 0 0.0443 0-0.0739 0.0527-0.14251 0.17208-0.22171 0.15797-0.0858-0.0153-0.14462-0.16831-0.2217-0.23697-0.0187-0.0166 0.035 0.0457 0.0443 0.079 0.007 0.024 0 0.2014 0 0.23697 0 0.0263-0.0143 0.0853 0 0.0789 0.0641-0.0285 0.116-0.20171 0.17737-0.15798 0.0566 0.0403 0.0217 0.21518 0.0443 0.31597 0.025 0.11135 0.0831 0.0789 0.13303 0.0789h0.0443c0.0147 0 0.0443-0.0264 0.0443 0 0 0.0263-0.0591 0-0.0443 0h0.0887 0.0443c0.0147 0 0.0339 0.0186 0.0443 0 0.0234-0.0417 0.0443-0.0991 0.0443-0.15799 0-0.0263-0.0576 0.0113-0.0443 0 0.0443-0.0263 0.0887-0.0527 0.13303-0.079-0.0148-0.0263-0.0591-0.0527-0.0443-0.0789 0.0209-0.0373 0.0678 0.0373 0.0887 0 0.0148-0.0264-0.0537-0.0457-0.0443-0.0789 0.0147-0.0527 0.0739-0.0263 0.0887-0.079 0.009-0.0333-0.0443-0.0418-0.0443-0.079 0-0.0264 0.0339 0.0186 0.0443 0 0.004-0.008 0.004-0.22908 0-0.23698-0.0105-0.0187-0.0296 0-0.0443 0h-0.31038c-0.0147 0-0.0339-0.0187-0.0443 0-0.0105 0.0186 0 0.0527 0 0.0789" stroke-width=".93740px" fill="none"/>
    <path id="path4256" stroke-linejoin="round" d="m389.55 423.97c2.0321-1.3594 5.8036-1.5178 5.8036-1.5178 1.1815 0.71054-0.89593 3.1424-2.2321 3.4821-1.3168 0.33476-4.7007-1.2089-3.5714-1.9643z" fill-rule="evenodd" stroke-linecap="round" stroke-width="1px" fill="#343434"/>
   </g>
   <g fill-rule="evenodd" stroke="#fff" stroke-width=".1" fill="#fff">
    <path id="path4258" d="m390.03 423.11c1.1384-0.44643 1.1384-0.43527 1.1384-0.43527l-0.18973 1.1272z"/>
    <path id="path4260" d="m390.93 422.79l1.1384-0.30135-0.18973 1.0603z"/>
    <path id="path4262" d="m391.94 422.47l1.1384-0.18973-0.18973 1.1272z"/>
    <path id="path4264" d="m392.92 422.3l1.1942-0.17857-0.23437 1.0045z"/>
    <path id="path4266" d="m393.98 422.17l1.2277-0.14509-0.51339 1.0379z"/>
   </g>
   <path id="path4274" d="m377.5 436.47c-0.30793 1.4508-0.50333 2.9982-0.27904 4.4642 0.29324 1.518 2.9229 2.4526 3.4488 0.63791 0.0644-1.2336 0.34192-2.8544-0.76844-3.7225-0.98991-0.4072-1.2593-1.526-2.4013-1.3796z" fill-rule="evenodd" stroke-width="0" fill="#7fa96e"/>
   <path id="path4282" d="m365.18 435.93s-1.0333 3.4748-1.5255 5.2157c-0.29112 1.1431-0.74055 2.4082-0.1984 3.5481 0.36077 0.78385 0.93975 1.5055 1.6885 1.9416 0.88259 0.15362 1.3162-0.94557 1.4816-1.6303-0.009-1.0364 0.0827-2.0664 0.16378-3.0996 0.13052-0.66437 0.0979-1.4158-0.37679-1.9368" fill-rule="evenodd" stroke-width="0" fill="#7fa96e"/>
  </g>
  <g id="g5009">
   <g>
    <path id="path4343" d="m387.9 476.58 2.2728-1.2627 1.7678 4.5457-2.5254 0.50508z" fill-rule="evenodd" stroke-width="0" fill="#6d6d6d"/>
    <ellipse id="ellipse4232" rx="5.6696" ry="6.9643" cy="458.12" cx="395.12" stroke-width="0" fill="#afafaf"/>
    <path id="path4234" d="m393.8 455.13v0.65084c0 0.0198-0.0147-0.0731 0-0.0591 0.0328 0.0312 0.0621 0.0742 0.0621 0.11834 0 0.0279-0.0829-0.0395-0.0621-0.0591 0.0293-0.0279 0.10582-0.0352 0.12435 0 0.0208 0.0395-0.0294 0.0872-0.0621 0.11834-0.0147 0.014-0.0185-0.0503 0-0.0591 0.037-0.0176 0.0829 0 0.12435 0h-0.0621 0.18653-0.0621c0.037 0 0.34971 0.0111 0.37304 0 0.0743-0.0353-0.11975-0.11833 0.0621-0.11833 0.0208 0 0 0.0394 0 0.0591 0.0415-0.0394 0.0829-0.0789 0.12435-0.11832 0.0208-0.0198-0.0829 0.0789-0.0621 0.0591 0.0415-0.0394 0.0829-0.0789 0.12435-0.11833 0.0207-0.0197-0.0415 0.0789-0.0621 0.0591-0.0294-0.0279 0-0.0789 0-0.11833v-0.11834c0-0.0198-0.0207-0.0591 0-0.0591 0.0208 0 0 0.0789 0 0.0591v-0.11833c0-0.0197 0.0115-0.0427 0-0.0591-0.0325-0.0464-0.0687-0.10069-0.12435-0.11833-0.0364-0.0115-0.0615 0.11903-0.12435 0.0591-0.0328-0.0312-0.0294-0.0872-0.0621-0.11833-0.0147-0.014 0.0207 0.0591 0 0.0591-0.0464 0-0.0804-0.0452-0.12434-0.0591-0.0197-0.007-0.0415 0-0.0621 0-0.0415 0-0.0837-0.007-0.12435 0-0.0929 0.0177-0.38467 0.12939-0.43523 0.17749-0.0293 0.0279 0 0.0789 0 0.11834v-0.0591 0.1775c0 0.0198-0.0207-0.0591 0-0.0591 0.0208 0-0.0185 0.0503 0 0.0591 0.037 0.0176 0.095-0.0279 0.12435 0 0.0293 0.0279-0.0393 0.10586 0 0.11834 0.0621 0.0198 0.12099-0.0591 0.18653-0.0591 0.0293 0-0.0621 0.0313-0.0621 0.0591 0 0.0198 0.0425-0.007 0.0621 0 0.0439 0.014 0.0916 0.028 0.12435 0.0591 0.0147 0.014-0.0208 0.0591 0 0.0591 0.0293 0 0.0329-0.0591 0.0621-0.0591 0.0293 0 0.0344 0.0503 0.0621 0.0591 0.0393 0.0125 0.0829 0 0.12434 0h-0.0621 0.24869-0.0621c0.0415 0 0.095 0.0279 0.12435 0 0.0208-0.0197-0.0752-0.0342-0.0621-0.0591 0.0207-0.0395 0.10362-0.0198 0.12435-0.0591 0.0131-0.0249-0.049-0.0342-0.0621-0.0591-0.009-0.0176 0-0.0395 0-0.0591v-0.11834c0-0.0197 0.0185 0.0503 0 0.0591-0.037 0.0176-0.095 0.0279-0.12435 0-0.0207-0.0198 0.0829-0.0395 0.0621-0.0591-0.003-0.003-0.27619 0-0.31086 0-0.0151 0-0.18453-0.002-0.18653 0-0.0147 0.014 0 0.0395 0 0.0591v0.11833-0.0591c0 0.39246-0.0293-0.0279 0.0621 0.0591 0.0293 0.0279-0.0293 0.0904 0 0.11834 0.0207 0.0197 0.0329-0.0591 0.0621-0.0591 0.0293 0 0.0359 0.0467 0.0621 0.0591 0.0185 0.008 0.0475-0.014 0.0621 0 0.0147 0.014-0.0208 0.0591 0 0.0591 0.0293 0 0.0329-0.0591 0.0621-0.0591 0.0208 0-0.0185 0.0503 0 0.0591 0.037 0.0176 0.0829 0 0.12434 0h-0.0621 0.12435c0.0207 0-0.0768 0.014-0.0621 0 0.0328-0.0312 0.0916-0.028 0.12435-0.0591 0.0147-0.014-0.0475 0.014-0.0621 0-0.0147-0.014-0.009-0.0415 0-0.0591 0.0131-0.0249 0.0329-0.0591 0.0621-0.0591 0.0294 0 0.0621 0.0871 0.0621 0.0591 0-0.0441-0.0294-0.0872-0.0621-0.11833-0.0147-0.014 0 0.0789 0 0.0591v-0.11833c0-0.0198 0.0208 0.0591 0 0.0591-0.0207 0 0-0.0394 0-0.0591v-0.0591c0-0.0197-0.0207-0.0591 0-0.0591 0.0208 0 0 0.0789 0 0.0591v-0.11833c0-0.0197 0.0208 0.0591 0 0.0591-0.0415 0 0.0415-0.11833 0-0.11833-0.0464 0-0.0916 0.028-0.12435 0.0591-0.0147 0.014 0.0768 0.014 0.0621 0-0.0328-0.0312-0.0916-0.028-0.12435-0.0591-0.0147-0.014 0.0829 0 0.0621 0h-0.12434 0.0621c-0.0415 0-0.095-0.0279-0.12435 0-0.0208 0.0197 0.0529 0.0327 0.0621 0.0591 0.0131 0.0374 0 0.0789 0 0.11834 0 0.0198 0.0147-0.0731 0-0.0591-0.0328 0.0312-0.0294 0.0872-0.0621 0.11834-0.0147 0.014 0-0.0789 0-0.0591v0.11834-0.0591" fill-rule="evenodd" stroke="#ffad3f" stroke-width=".96067px" fill="#ffcb60"/>
   </g>
   <path id="path4236" d="m397.04 454.81c0.18919 0.25278 0.10347 0.23698 0.22171 0.23698 0.0147 0 0.0339-0.0186 0.0443 0 0.0234 0.0417 0.021 0.11636 0.0443 0.15799 0.0105 0.0186-0.0105-0.0604 0-0.079s0.0296 0 0.0443 0h0.0443 0.0887-0.0443 0.0887-0.0443 0.13303c0.0147 0 0.0338 0.0186 0.0443 0 0.0234-0.0417 0.021-0.11636 0.0443-0.15799 0.0105-0.0186 0.0339 0.0186 0.0443 0 0.0105-0.0186-0.0147-0.079 0-0.079 0.0133 0-0.0292 0.26199 0.0443 0 0.006-0.0235-0.0147-0.079 0-0.079 0.0148 0 0 0.10535 0 0.079v-0.23697-0.079c0-0.0263 0.0105-0.0603 0-0.0789-0.0234-0.0417-0.0612-0.0463-0.0887-0.079-0.0174-0.0206-0.0256-0.0623-0.0443-0.0789-0.0132-0.0113-0.0311 0.0113-0.0443 0-0.0187-0.0166-0.0256-0.0623-0.0443-0.079-0.0164-0.0145-0.22742 0-0.26605 0-0.0308 0-0.20567-0.0143-0.2217 0-0.098 0.0873-0.0138 0.0491-0.0443 0.15798-0.009 0.0333-0.0296 0.0527-0.0443 0.079 0 0.10535 0.007 0.21146 0 0.31596-0.008 0.10773-0.0591 0.21065-0.0443 0.31597 0.007 0.0511 0.0606-0.0166 0.0887 0 0.0198 0.0113 0.0256 0.0623 0.0443 0.079 0.0132 0.0113 0.0296 0 0.0443 0h0.26604c0.0148 0 0.0339 0.0186 0.0443 0 0.004-0.008 0.004-0.22908 0-0.23699-0.0105-0.0186-0.0311 0.0113-0.0443 0-0.0247-0.0219-0.0744-0.15798-0.0887-0.15798-0.0147 0 0.0105 0.0976 0 0.079-0.0234-0.0417-0.021-0.11636-0.0443-0.15799-0.0234-0.0417-0.0653-0.0374-0.0887-0.0789-0.0105-0.0186 0.0296 0 0.0443 0-0.0739 0.0527-0.14251 0.17208-0.22171 0.15797-0.0858-0.0153-0.14462-0.16831-0.2217-0.23697-0.0187-0.0166 0.035 0.0457 0.0443 0.079 0.007 0.024 0 0.2014 0 0.23697 0 0.0263-0.0143 0.0853 0 0.0789 0.0641-0.0285 0.116-0.20171 0.17737-0.15798 0.0566 0.0403 0.0217 0.21518 0.0443 0.31597 0.025 0.11135 0.0831 0.0789 0.13303 0.0789h0.0443c0.0147 0 0.0443-0.0264 0.0443 0 0 0.0263-0.0591 0-0.0443 0h0.0887 0.0443c0.0147 0 0.0339 0.0186 0.0443 0 0.0234-0.0417 0.0443-0.0991 0.0443-0.15799 0-0.0263-0.0576 0.0113-0.0443 0 0.0443-0.0263 0.0887-0.0527 0.13303-0.079-0.0148-0.0263-0.0591-0.0527-0.0443-0.0789 0.0209-0.0373 0.0678 0.0373 0.0887 0 0.0148-0.0264-0.0537-0.0457-0.0443-0.0789 0.0147-0.0527 0.0739-0.0263 0.0887-0.079 0.009-0.0333-0.0443-0.0418-0.0443-0.079 0-0.0264 0.0339 0.0186 0.0443 0 0.004-0.008 0.004-0.22908 0-0.23698-0.0105-0.0187-0.0296 0-0.0443 0h-0.31038c-0.0147 0-0.0339-0.0187-0.0443 0-0.0105 0.0186 0 0.0527 0 0.0789" stroke="#ffad3f" stroke-width=".93740px" fill="none"/>
   <path id="path4238" stroke-linejoin="round" d="m393.29 458.83c2.0321-1.3594 5.8036-1.5178 5.8036-1.5178 1.1815 0.71054-0.89593 3.1424-2.2321 3.4821-1.3168 0.33476-4.7007-1.2089-3.5714-1.9643z" fill-rule="evenodd" stroke="#343434" stroke-linecap="round" stroke-width="1px" fill="#343434"/>
   <g fill-rule="evenodd" stroke="#fff" stroke-width=".1" fill="#fff">
    <path id="path4240" d="m393.77 457.97c1.1384-0.44643 1.1384-0.43527 1.1384-0.43527l-0.18973 1.1272z"/>
    <path id="path4242" d="m394.66 457.65l1.1384-0.30135-0.18973 1.0603z"/>
    <path id="path4244" d="m395.67 457.33l1.1384-0.18973-0.18973 1.1272z"/>
    <path id="path4246" d="m396.66 457.16l1.1942-0.17857-0.23437 1.0045z"/>
    <path id="path4248" d="m397.72 457.03l1.2277-0.14509-0.51339 1.0379z"/>
   </g>
   <g stroke-width="0" fill-rule="evenodd">
    <path id="path4319" d="m390.17 460.41c-4.5911 0.78713-8.3832 4.2025-10.43 8.2827-0.57513 1.1807-1.0932 2.4206-1.325 3.7148-0.0181 2.815 2.1176 5.2283 4.632 6.2438 2.2897 0.99279 5.2217 0.85084 7.0926-0.93222 0.81802-0.60776 1.7375-1.1253 2.4054-1.9256 2.723-2.9972 3.071-7.5799 1.6106-11.243-0.73379-1.9029-2.0238-3.5785-3.6653-4.7816-0.10667-0.12307-0.21333-0.24615-0.32-0.36922" fill="#949494"/>
    <path id="path4335" d="m380.32 472.03c-1.645-0.13034-3.1134 0.7485-4.5574 1.3994-0.48657 0.23871-0.86196 0.66792-1.3511 0.9171-1.3059 0.77255-2.7761 1.2421-4.2619 1.518-0.79878 0.10128-1.6024 0.2261-2.4086 0.22007 1.7587 0.27167 3.2377 1.5841 5.0666 1.5239 0.4996-0.0287 1.0024 0.13323 1.5061 0.0263 1.0797-0.129 2.0126-0.76642 3.0779-0.9468 0.44407-0.2083 0.92985-0.32277 1.3312-0.59513 0.76389-0.0146 1.5337-0.47305 1.7673-1.2259 0.30613-0.91996 0.13572-1.9398-0.17005-2.8369z" fill="#b9b9b9"/>
    <path id="path4341" d="m384.36 478.09 2.2728-0.50507 0.50507 5.0508h-2.2728z" fill="#c7c7c7"/>
    <path id="path4345" d="m392.7 468.57 5.0508-2.098v2.4477l-6.0609 2.098z" fill="#c7c7c7"/>
   </g>
  </g>
 </g>
</svg>
